<svg width="49" height="49" viewBox="0 0 49 49" fill="none" xmlns="http://www.w3.org/2000/svg">
<circle cx="24.4238" cy="24.4238" r="24.4238" fill="#9FC847"/>
<mask id="mask0_73_186" style="mask-type:alpha" maskUnits="userSpaceOnUse" x="0" y="0" width="49" height="49">
<circle cx="24.4238" cy="24.4238" r="24.4238" fill="#9FC847"/>
</mask>
<g mask="url(#mask0_73_186)">
<path d="M36.5201 16.1068C37.0809 15.6713 37.7287 15.4306 38.3619 15.7054C38.9342 15.9543 39.2606 16.5376 39.4625 17.0961C39.8791 18.2491 40.0161 20.0173 40.0347 21.7806C40.0536 23.5704 39.9499 25.4497 39.8424 26.8754C39.7885 27.5888 39.7336 28.1917 39.692 28.6166C39.6712 28.8287 39.6535 28.9974 39.6412 29.1127C39.6409 29.1155 39.6396 29.1187 39.6392 29.1215C39.6487 29.1437 39.6602 29.1682 39.6715 29.1947C39.7343 29.3427 39.8233 29.5577 39.9293 29.8246C40.1412 30.3583 40.422 31.1064 40.6978 31.9623C41.2426 33.6528 41.7952 35.8477 41.7066 37.6595C41.6152 39.5267 41.1933 41.2474 40.5064 42.8041C36.21 46.5664 30.5839 48.8479 24.4244 48.848C17.9613 48.848 12.0849 46.3365 7.71638 42.2377C7.17851 40.8264 6.86504 39.2904 6.82673 37.6429C6.78435 35.8112 7.41621 33.6154 8.02497 31.9291C8.33334 31.0749 8.64398 30.3294 8.87751 29.7982C8.99427 29.5326 9.09177 29.3194 9.16071 29.1722C9.16732 29.1581 9.17319 29.1441 9.17927 29.1312C9.1592 29.0194 9.13192 28.8644 9.09919 28.6732C9.02754 28.2548 8.93003 27.6601 8.82575 26.9564C8.61748 25.5511 8.38168 23.6969 8.27399 21.9232C8.16794 20.1761 8.17941 18.4147 8.5152 17.2455C8.67807 16.6786 8.96471 16.0774 9.52302 15.7953C10.136 15.4857 10.7968 15.6854 11.3853 16.0814C12.7854 17.0239 14.537 18.7206 15.9117 20.1459C16.6052 20.865 17.2144 21.5279 17.65 22.0101C17.8217 22.2003 17.967 22.3635 18.0797 22.4906C18.1575 22.4681 18.2461 22.4427 18.3433 22.4154C18.7499 22.3011 19.3176 22.149 19.9605 21.9965C21.2307 21.695 22.8546 21.3784 24.1187 21.3783C25.3798 21.3783 27.0761 21.6939 28.4175 21.9945C29.0965 22.1467 29.7005 22.2994 30.1343 22.4135C30.2445 22.4424 30.3443 22.4691 30.4312 22.4926C30.5282 22.374 30.6493 22.2261 30.7916 22.0551C31.181 21.5868 31.7273 20.9408 32.3541 20.2328C33.5979 18.8276 35.194 17.1367 36.5201 16.1068Z" fill="white"/>
<path d="M7.46087 37.629C7.66444 46.3815 16.0442 51.9717 24.713 51.7432C33.1139 51.5217 40.6579 46.1031 41.0727 37.629C41.2382 34.2484 38.9905 29.2206 38.9905 29.2206C38.9905 29.2206 40.7751 13.605 36.9084 16.6079C34.3581 18.5885 30.6618 23.2146 30.6618 23.2146C30.6618 23.2146 26.4872 22.0134 24.1179 22.0134C21.7487 22.0134 17.8716 23.2146 17.8716 23.2146C17.8716 23.2146 13.7072 18.4098 11.0303 16.6079C6.95261 13.8632 9.84047 29.2206 9.84047 29.2206C9.84047 29.2206 7.38146 34.2149 7.46087 37.629Z" fill="white" stroke="black" stroke-width="1.26877"/>
</g>
<path d="M15.2251 33.6224C15.2251 33.6224 15.8261 31.7192 17.9296 31.7192C20.0331 31.7192 20.9346 33.6224 20.9346 33.6224" stroke="black" stroke-width="1.26877" stroke-linecap="round"/>
<path d="M28.3892 33.6224C28.3892 33.6224 28.9902 31.7192 31.0936 31.7192C33.1971 31.7192 34.0986 33.6224 34.0986 33.6224" stroke="black" stroke-width="1.26877" stroke-linecap="round"/>
<line x1="24.107" y1="39.3319" x2="24.107" y2="41.8694" stroke="black" stroke-width="1.26877"/>
<line x1="10.1972" y1="36.9958" x2="15.2743" y2="38.1285" stroke="black" stroke-width="1.14189" stroke-linecap="round"/>
<line x1="11.278" y1="40.5958" x2="15.0687" y2="40.1074" stroke="black" stroke-width="1.14189" stroke-linecap="round"/>
<line x1="0.570947" y1="-0.570947" x2="5.7729" y2="-0.570947" transform="matrix(-0.976005 0.21775 0.21775 0.976005 39.1797 37.4287)" stroke="black" stroke-width="1.14189" stroke-linecap="round"/>
<line x1="0.570947" y1="-0.570947" x2="4.39306" y2="-0.570947" transform="matrix(-0.991801 -0.127796 -0.127796 0.991801 37.9111 41.235)" stroke="black" stroke-width="1.14189" stroke-linecap="round"/>
<path d="M18.397 41.235C18.397 41.235 18.998 43.1382 21.1015 43.1382C23.2049 43.1382 24.1064 41.235 24.1064 41.235" stroke="black" stroke-width="1.26877" stroke-linecap="round"/>
<path d="M24.1069 41.235C24.1069 41.235 24.7079 43.1382 26.8114 43.1382C28.9149 43.1382 29.8164 41.235 29.8164 41.235" stroke="black" stroke-width="1.26877" stroke-linecap="round"/>
<path d="M22.9137 36.16C23.7897 36.16 24.1825 37.1115 24.1825 37.1115C24.1825 37.1115 24.7413 36.1672 25.6928 36.16C26.486 36.154 26.9616 36.6356 26.9616 37.4287C26.9616 38.8538 24.1825 40.2835 24.1825 40.2835C24.1825 40.2835 21.5694 39.0146 21.5693 37.4287C21.5693 36.6356 21.8865 36.1601 22.9137 36.16Z" fill="#9FC847"/>
</svg>
