<svg xmlns="http://www.w3.org/2000/svg" width="300" height="400" viewBox="0 0 300 400"><rect width="100%" height="100%" fill="#DDDDDD"/><path fill="#999999" d="M82.88 185.065h4.98v30.37h-2.9q-.67 0-1.12-.22-.46-.22-.88-.75l-15.85-20.24q.13 1.39.13 2.56v18.65h-4.98v-30.37h2.96q.36 0 .62.04.26.03.46.12.2.1.39.27.19.18.42.48l15.92 20.33q-.07-.74-.11-1.45-.04-.72-.04-1.33zm20.46 8.49q2.39 0 4.35.77 1.97.78 3.36 2.21 1.4 1.43 2.16 3.49.75 2.05.75 4.59 0 2.57-.75 4.62-.76 2.06-2.16 3.51-1.39 1.45-3.36 2.23-1.96.78-4.35.78-2.42 0-4.39-.78-1.98-.78-3.37-2.23-1.4-1.45-2.17-3.51-.76-2.05-.76-4.62 0-2.54.76-4.59.77-2.06 2.17-3.49 1.39-1.43 3.37-2.21 1.97-.77 4.39-.77m0 18.2q2.68 0 3.97-1.8 1.3-1.81 1.3-5.29 0-3.49-1.3-5.32-1.29-1.82-3.97-1.82-2.74 0-4.05 1.83-1.31 1.84-1.31 5.31 0 3.46 1.31 5.28 1.31 1.81 4.05 1.81m31.26-11.42h4.23q1.55 0 2.7-.39 1.16-.39 1.93-1.11.76-.73 1.14-1.76.38-1.04.38-2.33 0-1.21-.38-2.2t-1.13-1.68q-.76-.69-1.91-1.06-1.16-.37-2.73-.37h-4.23zm-5.64-15.27h9.87q3.04 0 5.27.72 2.22.71 3.67 1.99t2.15 3.07q.71 1.78.71 3.9 0 2.21-.74 4.05-.73 1.83-2.2 3.16-1.47 1.32-3.69 2.06-2.21.73-5.17.73h-4.23v10.69h-5.64zm30.36-.84v11.97q1.26-1.17 2.77-1.91 1.52-.73 3.55-.73 1.77 0 3.13.6 1.37.59 2.28 1.68.91 1.08 1.39 2.58.47 1.5.47 3.31v13.71h-5.19v-13.71q0-1.98-.9-3.06t-2.75-1.08q-1.35 0-2.52.61-1.18.61-2.23 1.66v15.58h-5.19v-31.21zm28.04 9.33q2.39 0 4.35.77 1.97.78 3.36 2.21 1.4 1.43 2.16 3.49.75 2.05.75 4.59 0 2.57-.75 4.62-.76 2.06-2.16 3.51-1.39 1.45-3.36 2.23-1.96.78-4.35.78-2.42 0-4.39-.78-1.98-.78-3.37-2.23-1.4-1.45-2.17-3.51-.76-2.05-.76-4.62 0-2.54.76-4.59.77-2.06 2.17-3.49 1.39-1.43 3.37-2.21 1.97-.77 4.39-.77m0 18.2q2.68 0 3.98-1.8 1.29-1.81 1.29-5.29 0-3.49-1.29-5.32-1.3-1.82-3.98-1.82-2.73 0-4.05 1.83-1.31 1.84-1.31 5.31 0 3.46 1.31 5.28 1.32 1.81 4.05 1.81m21.77 4.02q-2.81 0-4.31-1.59-1.5-1.58-1.5-4.38v-12.03h-2.21q-.42 0-.71-.27-.3-.28-.3-.82v-2.06l3.47-.57 1.09-5.88q.11-.42.4-.65t.76-.23h2.68v6.78h5.76v3.7h-5.76v11.67q0 1.01.5 1.58.49.57 1.35.57.48 0 .81-.12.33-.11.57-.24t.43-.24q.19-.12.38-.12.23 0 .37.12.15.11.32.34l1.55 2.52q-1.13.95-2.6 1.43-1.47.49-3.05.49m17.98-22.22q2.39 0 4.36.77 1.96.78 3.36 2.21 1.39 1.43 2.15 3.49.76 2.05.76 4.59 0 2.57-.76 4.62-.76 2.06-2.15 3.51-1.4 1.45-3.36 2.23-1.97.78-4.36.78-2.42 0-4.39-.78t-3.37-2.23-2.16-3.51q-.77-2.05-.77-4.62 0-2.54.77-4.59.76-2.06 2.16-3.49t3.37-2.21q1.97-.77 4.39-.77m0 18.2q2.69 0 3.98-1.8 1.29-1.81 1.29-5.29 0-3.49-1.29-5.32-1.29-1.82-3.98-1.82-2.73 0-4.04 1.83-1.32 1.84-1.32 5.31 0 3.46 1.32 5.28 1.31 1.81 4.04 1.81"/></svg>