<svg width="49" height="49" viewBox="0 0 49 49" fill="none" xmlns="http://www.w3.org/2000/svg">
<circle cx="24.4238" cy="24.4238" r="23.9238" fill="#9FC847" stroke="white"/>
<mask id="mask0_73_284" style="mask-type:alpha" maskUnits="userSpaceOnUse" x="0" y="0" width="49" height="49">
<circle cx="24.4238" cy="24.4238" r="24.4238" fill="#9FC847"/>
</mask>
<g mask="url(#mask0_73_284)">
<path d="M36.5211 16.1073C37.082 15.6717 37.7296 15.4307 38.3629 15.7059C38.9351 15.955 39.2616 16.538 39.4635 17.0965C39.88 18.2497 40.0171 20.0177 40.0357 21.7811C40.0546 23.571 39.9509 25.4502 39.8433 26.8758C39.7895 27.5894 39.7346 28.1922 39.6929 28.617C39.6721 28.8294 39.6545 28.9978 39.6422 29.1131C39.6418 29.116 39.6405 29.1191 39.6402 29.1219C39.6498 29.1442 39.6612 29.1686 39.6724 29.1952C39.7353 29.3433 39.8243 29.5581 39.9303 29.825C40.1422 30.3588 40.423 31.1067 40.6988 31.9627C41.2436 33.6534 41.7963 35.8481 41.7076 37.66C41.6162 39.526 41.1946 41.2457 40.5084 42.8016C36.2117 46.5651 30.585 48.8474 24.4244 48.8475C17.9615 48.8475 12.0859 46.3359 7.71736 42.2371C7.1797 40.8261 6.86604 39.2905 6.82771 37.6434C6.78523 35.8116 7.41715 33.6159 8.02596 31.9295C8.33435 31.0753 8.64494 30.3299 8.87849 29.7987C8.99529 29.533 9.09274 29.3199 9.1617 29.1727C9.16834 29.1585 9.17415 29.1446 9.18025 29.1317C9.16018 29.0199 9.13294 28.865 9.10017 28.6737C9.02852 28.2553 8.93105 27.6607 8.82674 26.9569C8.61846 25.5515 8.38268 23.6975 8.27498 21.9237C8.1689 20.1764 8.18037 18.4152 8.51619 17.2459C8.67906 16.6789 8.9655 16.0779 9.524 15.7957C10.1371 15.4862 10.7977 15.6857 11.3863 16.0819C12.7865 17.0245 14.5381 18.7211 15.9127 20.1463C16.6063 20.8655 17.2154 21.5284 17.651 22.0106C17.8228 22.2008 17.968 22.364 18.0806 22.4911C18.1585 22.4685 18.2471 22.4432 18.3443 22.4159C18.751 22.3015 19.3187 22.1495 19.9615 21.9969C21.2318 21.6955 22.8556 21.3787 24.1197 21.3787C25.3809 21.3789 27.0771 21.6943 28.4185 21.995C29.0976 22.1472 29.7016 22.2999 30.1353 22.4139C30.2455 22.4429 30.3453 22.4695 30.4322 22.493C30.5291 22.3745 30.6503 22.2265 30.7926 22.0555C31.182 21.5872 31.7283 20.9413 32.3551 20.2332C33.5989 18.828 35.195 17.1371 36.5211 16.1073Z" fill="white"/>
<path d="M7.46087 37.6288C7.66444 46.3812 16.0442 51.9715 24.713 51.7429C33.1139 51.5214 40.6579 46.1029 41.0727 37.6288C41.2382 34.2481 38.9905 29.2203 38.9905 29.2203C38.9905 29.2203 40.7751 13.6047 36.9084 16.6077C34.3581 18.5883 30.6618 23.2143 30.6618 23.2143C30.6618 23.2143 26.4872 22.0132 24.1179 22.0132C21.7487 22.0132 17.8716 23.2143 17.8716 23.2143C17.8716 23.2143 13.7072 18.4095 11.0303 16.6077C6.95261 13.863 9.84047 29.2203 9.84047 29.2203C9.84047 29.2203 7.38146 34.2146 7.46087 37.6288Z" fill="white" stroke="black" stroke-width="1.26877"/>
</g>
<path d="M15.2251 33.6224C15.2251 33.6224 15.8261 31.7192 17.9296 31.7192C20.0331 31.7192 20.9346 33.6224 20.9346 33.6224" stroke="black" stroke-width="1.26877" stroke-linecap="round"/>
<path d="M28.3892 33.6224C28.3892 33.6224 28.9902 31.7192 31.0936 31.7192C33.1971 31.7192 34.0986 33.6224 34.0986 33.6224" stroke="black" stroke-width="1.26877" stroke-linecap="round"/>
<line x1="24.107" y1="39.332" x2="24.107" y2="41.8696" stroke="black" stroke-width="1.26877"/>
<line x1="10.1972" y1="36.9958" x2="15.2743" y2="38.1285" stroke="black" stroke-width="1.14189" stroke-linecap="round"/>
<line x1="11.278" y1="40.5956" x2="15.0687" y2="40.1072" stroke="black" stroke-width="1.14189" stroke-linecap="round"/>
<line x1="0.570947" y1="-0.570947" x2="5.7729" y2="-0.570947" transform="matrix(-0.976005 0.21775 0.21775 0.976005 39.1797 37.4287)" stroke="black" stroke-width="1.14189" stroke-linecap="round"/>
<line x1="0.570947" y1="-0.570947" x2="4.39306" y2="-0.570947" transform="matrix(-0.991801 -0.127796 -0.127796 0.991801 37.9111 41.2349)" stroke="black" stroke-width="1.14189" stroke-linecap="round"/>
<path d="M18.397 41.235C18.397 41.235 18.998 43.1382 21.1015 43.1382C23.2049 43.1382 24.1064 41.235 24.1064 41.235" stroke="black" stroke-width="1.26877" stroke-linecap="round"/>
<path d="M24.1069 41.235C24.1069 41.235 24.7079 43.1382 26.8114 43.1382C28.9149 43.1382 29.8164 41.235 29.8164 41.235" stroke="black" stroke-width="1.26877" stroke-linecap="round"/>
<path d="M22.9137 36.1603C23.7897 36.1602 24.1825 37.1118 24.1825 37.1118C24.1825 37.1118 24.7413 36.1674 25.6928 36.1602C26.486 36.1542 26.9616 36.6358 26.9616 37.429C26.9616 38.854 24.1825 40.2838 24.1825 40.2838C24.1825 40.2838 21.5694 39.0149 21.5693 37.429C21.5693 36.6358 21.8865 36.1604 22.9137 36.1603Z" fill="#9FC847"/>
</svg>
